<svg width="241" height="64" viewBox="0 0 241 64" fill="none" xmlns="http://www.w3.org/2000/svg">
<g clip-path="url(#clip0_501_6)">
<path d="M62.5 16H84.5L65.5 48H43.5L62.5 16Z" fill="white"/>
<path d="M42.5 16H58.5L39.5 48H23.5L42.5 16Z" fill="#FF9736"/>
<path d="M26.5 16H38.5L19.5 48H7.5L26.5 16Z" fill="white"/>
</g>
<path d="M96.7756 29.2472C96.679 28.8892 96.5369 28.5739 96.3494 28.3011C96.1619 28.0227 95.9318 27.7869 95.6591 27.5938C95.3864 27.4006 95.0739 27.2557 94.7216 27.1591C94.3693 27.0568 93.983 27.0057 93.5625 27.0057C92.7159 27.0057 91.983 27.2102 91.3636 27.6193C90.75 28.0284 90.2756 28.625 89.9403 29.4091C89.6051 30.1875 89.4375 31.1335 89.4375 32.2472C89.4375 33.3665 89.5994 34.321 89.9233 35.1108C90.2472 35.9006 90.7159 36.5028 91.3295 36.9176C91.9432 37.3324 92.6875 37.5398 93.5625 37.5398C94.3352 37.5398 94.9886 37.4148 95.5227 37.1648C96.0625 36.9091 96.4716 36.5483 96.75 36.0824C97.0284 35.6165 97.1676 35.0682 97.1676 34.4375L97.9517 34.5312H93.7074V31.4545H101.233V33.7642C101.233 35.3267 100.901 36.6648 100.236 37.7784C99.5767 38.892 98.6676 39.7472 97.5085 40.3438C96.3551 40.9403 95.0284 41.2386 93.5284 41.2386C91.8636 41.2386 90.4006 40.8778 89.1392 40.1562C87.8778 39.4347 86.8949 38.4062 86.1903 37.071C85.4858 35.7301 85.1335 34.1392 85.1335 32.2983C85.1335 30.8665 85.3466 29.5966 85.7727 28.4886C86.1989 27.375 86.7926 26.4318 87.554 25.6591C88.321 24.8864 89.2074 24.3011 90.2131 23.9034C91.2244 23.5057 92.3125 23.3068 93.4773 23.3068C94.4886 23.3068 95.429 23.4517 96.2983 23.7415C97.1733 24.0312 97.946 24.4403 98.6165 24.9688C99.2926 25.4972 99.8409 26.125 100.261 26.8523C100.682 27.5795 100.943 28.3778 101.045 29.2472H96.7756ZM121.227 41V23.5455H128.506C129.813 23.5455 130.906 23.7301 131.787 24.0994C132.673 24.4687 133.338 24.9858 133.781 25.6506C134.23 26.3153 134.455 27.0852 134.455 27.9602C134.455 28.625 134.315 29.2188 134.037 29.7415C133.759 30.2585 133.375 30.6875 132.886 31.0284C132.398 31.3693 131.832 31.608 131.19 31.7443V31.9148C131.895 31.9489 132.545 32.1392 133.142 32.4858C133.744 32.8324 134.227 33.3153 134.591 33.9347C134.955 34.5483 135.136 35.2756 135.136 36.1165C135.136 37.054 134.898 37.892 134.42 38.6307C133.943 39.3636 133.253 39.9432 132.349 40.3693C131.446 40.7898 130.349 41 129.06 41H121.227ZM125.446 37.5994H128.054C128.969 37.5994 129.642 37.4261 130.074 37.0795C130.511 36.733 130.73 36.25 130.73 35.6307C130.73 35.1818 130.625 34.7955 130.415 34.4716C130.205 34.142 129.906 33.8892 129.52 33.7131C129.134 33.5312 128.67 33.4403 128.131 33.4403H125.446V37.5994ZM125.446 30.7216H127.781C128.241 30.7216 128.651 30.6449 129.009 30.4915C129.366 30.3381 129.645 30.1165 129.844 29.8267C130.048 29.5369 130.151 29.1875 130.151 28.7784C130.151 28.1932 129.943 27.733 129.528 27.3977C129.114 27.0625 128.554 26.8949 127.849 26.8949H125.446V30.7216ZM145.543 30.6705V33.875H137.463V30.6705H145.543ZM148.485 23.5455H153.71L158.141 34.3523H158.346L162.778 23.5455H168.002V41H163.894V30.2784H163.749L159.556 40.8892H156.931L152.738 30.2188H152.593V41H148.485V23.5455ZM176.744 41.2472C175.369 41.2472 174.188 40.9659 173.199 40.4034C172.216 39.8352 171.457 39.0455 170.923 38.0341C170.395 37.017 170.131 35.8381 170.131 34.4972C170.131 33.1506 170.395 31.9716 170.923 30.9602C171.457 29.9432 172.216 29.1534 173.199 28.5909C174.188 28.0227 175.369 27.7386 176.744 27.7386C178.119 27.7386 179.298 28.0227 180.281 28.5909C181.27 29.1534 182.028 29.9432 182.557 30.9602C183.091 31.9716 183.358 33.1506 183.358 34.4972C183.358 35.8381 183.091 37.017 182.557 38.0341C182.028 39.0455 181.27 39.8352 180.281 40.4034C179.298 40.9659 178.119 41.2472 176.744 41.2472ZM176.77 38.1023C177.27 38.1023 177.693 37.9489 178.04 37.642C178.386 37.3352 178.651 36.9091 178.832 36.3636C179.02 35.8182 179.114 35.1875 179.114 34.4716C179.114 33.7443 179.02 33.108 178.832 32.5625C178.651 32.017 178.386 31.5909 178.04 31.2841C177.693 30.9773 177.27 30.8239 176.77 30.8239C176.253 30.8239 175.815 30.9773 175.457 31.2841C175.105 31.5909 174.835 32.017 174.648 32.5625C174.466 33.108 174.375 33.7443 174.375 34.4716C174.375 35.1875 174.466 35.8182 174.648 36.3636C174.835 36.9091 175.105 37.3352 175.457 37.642C175.815 37.9489 176.253 38.1023 176.77 38.1023ZM192.882 27.9091V30.9773H184.624V27.9091H192.882ZM186.354 24.7727H190.521V36.8835C190.521 37.1392 190.561 37.3466 190.641 37.5057C190.726 37.6591 190.848 37.7699 191.007 37.8381C191.166 37.9006 191.357 37.9318 191.578 37.9318C191.737 37.9318 191.905 37.9176 192.081 37.8892C192.263 37.8551 192.399 37.8267 192.49 37.804L193.121 40.8125C192.922 40.8693 192.641 40.9403 192.277 41.0256C191.919 41.1108 191.49 41.1648 190.99 41.1875C190.013 41.233 189.175 41.1193 188.476 40.8466C187.783 40.5682 187.251 40.1364 186.882 39.5511C186.518 38.9659 186.342 38.2301 186.354 37.3438V24.7727ZM200.979 41.2472C199.604 41.2472 198.422 40.9659 197.433 40.4034C196.45 39.8352 195.692 39.0455 195.158 38.0341C194.629 37.017 194.365 35.8381 194.365 34.4972C194.365 33.1506 194.629 31.9716 195.158 30.9602C195.692 29.9432 196.45 29.1534 197.433 28.5909C198.422 28.0227 199.604 27.7386 200.979 27.7386C202.354 27.7386 203.533 28.0227 204.516 28.5909C205.504 29.1534 206.263 29.9432 206.791 30.9602C207.325 31.9716 207.592 33.1506 207.592 34.4972C207.592 35.8381 207.325 37.017 206.791 38.0341C206.263 39.0455 205.504 39.8352 204.516 40.4034C203.533 40.9659 202.354 41.2472 200.979 41.2472ZM201.004 38.1023C201.504 38.1023 201.928 37.9489 202.274 37.642C202.621 37.3352 202.885 36.9091 203.067 36.3636C203.254 35.8182 203.348 35.1875 203.348 34.4716C203.348 33.7443 203.254 33.108 203.067 32.5625C202.885 32.017 202.621 31.5909 202.274 31.2841C201.928 30.9773 201.504 30.8239 201.004 30.8239C200.487 30.8239 200.05 30.9773 199.692 31.2841C199.339 31.5909 199.07 32.017 198.882 32.5625C198.7 33.108 198.609 33.7443 198.609 34.4716C198.609 35.1875 198.7 35.8182 198.882 36.3636C199.07 36.9091 199.339 37.3352 199.692 37.642C200.05 37.9489 200.487 38.1023 201.004 38.1023ZM209.727 41V27.9091H213.776V30.2955H213.912C214.151 29.4318 214.54 28.7898 215.08 28.3693C215.619 27.9432 216.247 27.7301 216.963 27.7301C217.156 27.7301 217.355 27.7443 217.56 27.7727C217.764 27.7955 217.955 27.8324 218.131 27.8835V31.5057C217.932 31.4375 217.67 31.3835 217.347 31.3438C217.028 31.304 216.744 31.2841 216.494 31.2841C216 31.2841 215.554 31.3949 215.156 31.6165C214.764 31.8324 214.455 32.1364 214.227 32.5284C214.006 32.9148 213.895 33.3693 213.895 33.892V41H209.727ZM231.258 31.9062L227.431 32.0085C227.391 31.7358 227.283 31.4943 227.107 31.2841C226.931 31.0682 226.701 30.9006 226.417 30.7812C226.138 30.6562 225.815 30.5938 225.445 30.5938C224.962 30.5938 224.55 30.6903 224.21 30.8835C223.874 31.0767 223.71 31.3381 223.715 31.6676C223.71 31.9233 223.812 32.1449 224.022 32.3324C224.238 32.5199 224.621 32.6705 225.173 32.7841L227.695 33.2614C229.002 33.5114 229.974 33.9261 230.61 34.5057C231.252 35.0852 231.576 35.8523 231.582 36.8068C231.576 37.7045 231.309 38.4858 230.781 39.1506C230.258 39.8153 229.542 40.3324 228.633 40.7017C227.724 41.0653 226.684 41.2472 225.513 41.2472C223.644 41.2472 222.17 40.8636 221.09 40.0966C220.016 39.3239 219.403 38.2898 219.249 36.9943L223.366 36.892C223.457 37.3693 223.692 37.733 224.073 37.983C224.454 38.233 224.94 38.358 225.531 38.358C226.065 38.358 226.499 38.2585 226.835 38.0597C227.17 37.8608 227.34 37.5966 227.346 37.267C227.34 36.9716 227.21 36.7358 226.954 36.5597C226.698 36.3778 226.298 36.2358 225.752 36.1335L223.468 35.6989C222.156 35.4602 221.178 35.0199 220.536 34.3778C219.894 33.7301 219.576 32.9062 219.582 31.9062C219.576 31.0312 219.809 30.2841 220.281 29.6648C220.752 29.0398 221.423 28.5625 222.292 28.233C223.161 27.9034 224.187 27.7386 225.369 27.7386C227.141 27.7386 228.539 28.1108 229.562 28.8551C230.585 29.5937 231.15 30.6108 231.258 31.9062Z" fill="white"/>
<path d="M118.575 23.5455V41H114.995L108.049 30.9261H107.938V41H103.719V23.5455H107.35L114.219 33.6023H114.364V23.5455H118.575Z" fill="#FF9736"/>
<defs>
<clipPath id="clip0_501_6">
<rect width="78" height="32" fill="white" transform="translate(7 16)"/>
</clipPath>
</defs>
</svg>
